<?xml version="1.0" encoding="UTF-8" standalone="no"?>
<!DOCTYPE svg PUBLIC "-//W3C//DTD SVG 1.1//EN"
 "http://www.w3.org/Graphics/SVG/1.1/DTD/svg11.dtd">
<!-- Generated by graphviz version 2.43.0 (0)
 -->
<!-- Title: %3 Pages: 1 -->
<svg width="2188pt" height="426pt"
 viewBox="0.00 0.00 2187.87 426.00" xmlns="http://www.w3.org/2000/svg" xmlns:xlink="http://www.w3.org/1999/xlink">
<g id="graph0" class="graph" transform="scale(1 1) rotate(0) translate(4 422)">
<title>%3</title>
<polygon fill="white" stroke="transparent" points="-4,4 -4,-422 2183.87,-422 2183.87,4 -4,4"/>
<!-- unified_verified_deal -->
<g id="node1" class="node">
<title>unified_verified_deal</title>
<ellipse fill="none" stroke="black" cx="183.93" cy="-331" rx="163.27" ry="18"/>
<text text-anchor="middle" x="183.93" y="-327.3" font-family="Times,serif" font-size="14.00">unified_verified_deal (DMOB DB)</text>
</g>
<!-- unified_verified_deal_hourly -->
<g id="node5" class="node">
<title>unified_verified_deal_hourly</title>
<polygon fill="none" stroke="black" points="954.37,-326 739.37,-326 739.37,-290 954.37,-290 954.37,-326"/>
<text text-anchor="middle" x="846.87" y="-304.3" font-family="Times,serif" font-size="14.00">unified_verified_deal_hourly</text>
</g>
<!-- unified_verified_deal&#45;&gt;unified_verified_deal_hourly -->
<g id="edge2" class="edge">
<title>unified_verified_deal&#45;&gt;unified_verified_deal_hourly</title>
<path fill="none" stroke="black" d="M323.71,-321.67C323.71,-321.67 729.2,-321.67 729.2,-321.67"/>
<polygon fill="black" stroke="black" points="729.2,-325.17 739.2,-321.67 729.2,-318.17 729.2,-325.17"/>
</g>
<!-- client_provider_distribution_weekly -->
<g id="node6" class="node">
<title>client_provider_distribution_weekly</title>
<polygon fill="none" stroke="black" points="674.87,-207 403.87,-207 403.87,-171 674.87,-171 674.87,-207"/>
<text text-anchor="middle" x="539.37" y="-185.3" font-family="Times,serif" font-size="14.00">client_provider_distribution_weekly</text>
</g>
<!-- unified_verified_deal&#45;&gt;client_provider_distribution_weekly -->
<g id="edge3" class="edge">
<title>unified_verified_deal&#45;&gt;client_provider_distribution_weekly</title>
<path fill="none" stroke="black" d="M290.14,-317.33C363.48,-317.33 447.87,-317.33 447.87,-317.33 447.87,-317.33 447.87,-217.11 447.87,-217.11"/>
<polygon fill="black" stroke="black" points="451.37,-217.11 447.87,-207.11 444.37,-217.11 451.37,-217.11"/>
</g>
<!-- client_replica_distribution -->
<g id="node9" class="node">
<title>client_replica_distribution</title>
<polygon fill="none" stroke="black" points="948.37,-418 745.37,-418 745.37,-382 948.37,-382 948.37,-418"/>
<text text-anchor="middle" x="846.87" y="-396.3" font-family="Times,serif" font-size="14.00">client_replica_distribution</text>
</g>
<!-- unified_verified_deal&#45;&gt;client_replica_distribution -->
<g id="edge6" class="edge">
<title>unified_verified_deal&#45;&gt;client_replica_distribution</title>
<path fill="none" stroke="black" d="M347.38,-331C543.68,-331 846.87,-331 846.87,-331 846.87,-331 846.87,-371.87 846.87,-371.87"/>
<polygon fill="black" stroke="black" points="843.37,-371.87 846.87,-381.87 850.37,-371.87 843.37,-371.87"/>
</g>
<!-- cid_sharing -->
<g id="node10" class="node">
<title>cid_sharing</title>
<polygon fill="none" stroke="black" points="588.37,-372 490.37,-372 490.37,-336 588.37,-336 588.37,-372"/>
<text text-anchor="middle" x="539.37" y="-350.3" font-family="Times,serif" font-size="14.00">cid_sharing</text>
</g>
<!-- unified_verified_deal&#45;&gt;cid_sharing -->
<g id="edge7" class="edge">
<title>unified_verified_deal&#45;&gt;cid_sharing</title>
<path fill="none" stroke="black" d="M309.5,-342.5C309.5,-342.5 480.08,-342.5 480.08,-342.5"/>
<polygon fill="black" stroke="black" points="480.08,-346 490.08,-342.5 480.08,-339 480.08,-346"/>
</g>
<!-- verified_client_allowance -->
<g id="node2" class="node">
<title>verified_client_allowance</title>
<ellipse fill="none" stroke="black" cx="183.93" cy="-72" rx="183.87" ry="18"/>
<text text-anchor="middle" x="183.93" y="-68.3" font-family="Times,serif" font-size="14.00">verified_client_allowance (DMOB DB)</text>
</g>
<!-- client_allocator_distribution_weekly -->
<g id="node7" class="node">
<title>client_allocator_distribution_weekly</title>
<polygon fill="none" stroke="black" points="982.87,-88 710.87,-88 710.87,-52 982.87,-52 982.87,-88"/>
<text text-anchor="middle" x="846.87" y="-66.3" font-family="Times,serif" font-size="14.00">client_allocator_distribution_weekly</text>
</g>
<!-- verified_client_allowance&#45;&gt;client_allocator_distribution_weekly -->
<g id="edge4" class="edge">
<title>verified_client_allowance&#45;&gt;client_allocator_distribution_weekly</title>
<path fill="none" stroke="black" d="M367.72,-71C367.72,-71 700.66,-71 700.66,-71"/>
<polygon fill="black" stroke="black" points="700.66,-74.5 710.66,-71 700.66,-67.5 700.66,-74.5"/>
</g>
<!-- filspark -->
<g id="node3" class="node">
<title>filspark</title>
<ellipse fill="none" stroke="black" cx="183.93" cy="-18" rx="64.19" ry="18"/>
<text text-anchor="middle" x="183.93" y="-14.3" font-family="Times,serif" font-size="14.00">filspark API</text>
</g>
<!-- provider_retrievability_daily -->
<g id="node4" class="node">
<title>provider_retrievability_daily</title>
<polygon fill="none" stroke="black" points="648.87,-40 429.87,-40 429.87,-4 648.87,-4 648.87,-40"/>
<text text-anchor="middle" x="539.37" y="-18.3" font-family="Times,serif" font-size="14.00">provider_retrievability_daily</text>
</g>
<!-- filspark&#45;&gt;provider_retrievability_daily -->
<g id="edge1" class="edge">
<title>filspark&#45;&gt;provider_retrievability_daily</title>
<path fill="none" stroke="black" d="M247.89,-20C247.89,-20 419.53,-20 419.53,-20"/>
<polygon fill="black" stroke="black" points="419.53,-23.5 429.53,-20 419.53,-16.5 419.53,-23.5"/>
</g>
<!-- providers_weekly -->
<g id="node12" class="node">
<title>providers_weekly</title>
<polygon fill="none" stroke="black" points="917.37,-142 776.37,-142 776.37,-106 917.37,-106 917.37,-142"/>
<text text-anchor="middle" x="846.87" y="-120.3" font-family="Times,serif" font-size="14.00">providers_weekly</text>
</g>
<!-- provider_retrievability_daily&#45;&gt;providers_weekly -->
<g id="edge10" class="edge">
<title>provider_retrievability_daily&#45;&gt;providers_weekly</title>
<path fill="none" stroke="black" d="M539.87,-40.06C539.87,-67.87 539.87,-118 539.87,-118 539.87,-118 766.05,-118 766.05,-118"/>
<polygon fill="black" stroke="black" points="766.05,-121.5 776.05,-118 766.05,-114.5 766.05,-121.5"/>
</g>
<!-- pr_label -->
<g id="node14" class="node">
<title>pr_label</title>
<polygon fill="none" stroke="black" points="1532.87,-11 1532.87,-32 1573.87,-32 1573.87,-11 1532.87,-11"/>
<text text-anchor="start" x="1535.87" y="-18.8" font-family="Times,serif" font-weight="bold" font-size="14.00">date</text>
<polygon fill="none" stroke="black" points="1573.87,-11 1573.87,-32 1646.87,-32 1646.87,-11 1573.87,-11"/>
<text text-anchor="start" x="1576.87" y="-18.8" font-family="Times,serif" font-weight="bold" font-size="14.00">provider</text>
<polygon fill="none" stroke="black" points="1646.87,-11 1646.87,-32 1686.87,-32 1686.87,-11 1646.87,-11"/>
<text text-anchor="start" x="1649.87" y="-17.8" font-family="Times,serif" font-size="14.00">total</text>
<polygon fill="none" stroke="black" points="1686.87,-11 1686.87,-32 1766.87,-32 1766.87,-11 1686.87,-11"/>
<text text-anchor="start" x="1689.87" y="-17.8" font-family="Times,serif" font-size="14.00">successful</text>
<polygon fill="none" stroke="black" points="1766.87,-11 1766.87,-32 1863.87,-32 1863.87,-11 1766.87,-11"/>
<text text-anchor="start" x="1769.87" y="-17.8" font-family="Times,serif" font-size="14.00">success_rate</text>
</g>
<!-- provider_retrievability_daily&#45;&gt;pr_label -->
<g id="edge14" class="edge">
<title>provider_retrievability_daily&#45;&gt;pr_label</title>
<path fill="none" stroke="black" stroke-dasharray="1,5" d="M648.88,-22C852.78,-22 1291.68,-22 1532.09,-22"/>
</g>
<!-- provider_first_client -->
<g id="node8" class="node">
<title>provider_first_client</title>
<polygon fill="none" stroke="black" points="1179.37,-272 1019.37,-272 1019.37,-236 1179.37,-236 1179.37,-272"/>
<text text-anchor="middle" x="1099.37" y="-250.3" font-family="Times,serif" font-size="14.00">provider_first_client</text>
</g>
<!-- unified_verified_deal_hourly&#45;&gt;provider_first_client -->
<g id="edge5" class="edge">
<title>unified_verified_deal_hourly&#45;&gt;provider_first_client</title>
<path fill="none" stroke="black" d="M935.87,-289.72C935.87,-274.05 935.87,-254 935.87,-254 935.87,-254 1009.05,-254 1009.05,-254"/>
<polygon fill="black" stroke="black" points="1009.05,-257.5 1019.05,-254 1009.05,-250.5 1009.05,-257.5"/>
</g>
<!-- client_claims_hourly -->
<g id="node11" class="node">
<title>client_claims_hourly</title>
<polygon fill="none" stroke="black" points="1179.87,-326 1018.87,-326 1018.87,-290 1179.87,-290 1179.87,-326"/>
<text text-anchor="middle" x="1099.37" y="-304.3" font-family="Times,serif" font-size="14.00">client_claims_hourly</text>
</g>
<!-- unified_verified_deal_hourly&#45;&gt;client_claims_hourly -->
<g id="edge8" class="edge">
<title>unified_verified_deal_hourly&#45;&gt;client_claims_hourly</title>
<path fill="none" stroke="black" d="M954.68,-308C954.68,-308 1008.65,-308 1008.65,-308"/>
<polygon fill="black" stroke="black" points="1008.65,-311.5 1018.65,-308 1008.65,-304.5 1008.65,-311.5"/>
</g>
<!-- client_provider_distribution_weekly&#45;&gt;providers_weekly -->
<g id="edge9" class="edge">
<title>client_provider_distribution_weekly&#45;&gt;providers_weekly</title>
<path fill="none" stroke="black" d="M666.87,-170.98C666.87,-153.63 666.87,-130 666.87,-130 666.87,-130 766.24,-130 766.24,-130"/>
<polygon fill="black" stroke="black" points="766.24,-133.5 776.24,-130 766.24,-126.5 766.24,-133.5"/>
</g>
<!-- allocators_weekly -->
<g id="node13" class="node">
<title>allocators_weekly</title>
<polygon fill="none" stroke="black" points="1170.87,-177 1027.87,-177 1027.87,-141 1170.87,-141 1170.87,-177"/>
<text text-anchor="middle" x="1099.37" y="-155.3" font-family="Times,serif" font-size="14.00">allocators_weekly</text>
</g>
<!-- client_provider_distribution_weekly&#45;&gt;allocators_weekly -->
<g id="edge12" class="edge">
<title>client_provider_distribution_weekly&#45;&gt;allocators_weekly</title>
<path fill="none" stroke="black" d="M657.87,-170.7C657.87,-165.55 657.87,-161.33 657.87,-161.33 657.87,-161.33 1017.45,-161.33 1017.45,-161.33"/>
<polygon fill="black" stroke="black" points="1017.45,-164.83 1027.45,-161.33 1017.45,-157.83 1017.45,-164.83"/>
</g>
<!-- cpd_label -->
<g id="node21" class="node">
<title>cpd_label</title>
<polygon fill="none" stroke="black" points="1492.87,-197 1492.87,-218 1538.87,-218 1538.87,-197 1492.87,-197"/>
<text text-anchor="start" x="1495.87" y="-204.8" font-family="Times,serif" font-weight="bold" font-size="14.00">week</text>
<polygon fill="none" stroke="black" points="1538.87,-197 1538.87,-218 1590.87,-218 1590.87,-197 1538.87,-197"/>
<text text-anchor="start" x="1541.87" y="-204.8" font-family="Times,serif" font-weight="bold" font-size="14.00">client</text>
<polygon fill="none" stroke="black" points="1590.87,-197 1590.87,-218 1663.87,-218 1663.87,-197 1590.87,-197"/>
<text text-anchor="start" x="1593.87" y="-204.8" font-family="Times,serif" font-weight="bold" font-size="14.00">provider</text>
<polygon fill="none" stroke="black" points="1663.87,-197 1663.87,-218 1774.87,-218 1774.87,-197 1663.87,-197"/>
<text text-anchor="start" x="1666.87" y="-203.8" font-family="Times,serif" font-size="14.00">total_deal_size</text>
<polygon fill="none" stroke="black" points="1774.87,-197 1774.87,-218 1902.87,-218 1902.87,-197 1774.87,-197"/>
<text text-anchor="start" x="1777.87" y="-203.8" font-family="Times,serif" font-size="14.00">unique_data_size</text>
</g>
<!-- client_provider_distribution_weekly&#45;&gt;cpd_label -->
<g id="edge21" class="edge">
<title>client_provider_distribution_weekly&#45;&gt;cpd_label</title>
<path fill="none" stroke="black" stroke-dasharray="1,5" d="M675.1,-202.25C876.76,-202.25 1256.97,-202.25 1492.71,-202.25"/>
</g>
<!-- client_allocator_distribution_weekly&#45;&gt;allocators_weekly -->
<g id="edge13" class="edge">
<title>client_allocator_distribution_weekly&#45;&gt;allocators_weekly</title>
<path fill="none" stroke="black" d="M968.87,-88.12C968.87,-112.18 968.87,-151.67 968.87,-151.67 968.87,-151.67 1017.63,-151.67 1017.63,-151.67"/>
<polygon fill="black" stroke="black" points="1017.63,-155.17 1027.63,-151.67 1017.63,-148.17 1017.63,-155.17"/>
</g>
<!-- cad_label -->
<g id="node22" class="node">
<title>cad_label</title>
<polygon fill="none" stroke="black" points="1469.87,-59 1469.87,-80 1515.87,-80 1515.87,-59 1469.87,-59"/>
<text text-anchor="start" x="1472.87" y="-66.8" font-family="Times,serif" font-weight="bold" font-size="14.00">week</text>
<polygon fill="none" stroke="black" points="1515.87,-59 1515.87,-80 1567.87,-80 1567.87,-59 1515.87,-59"/>
<text text-anchor="start" x="1518.87" y="-66.8" font-family="Times,serif" font-weight="bold" font-size="14.00">client</text>
<polygon fill="none" stroke="black" points="1567.87,-59 1567.87,-80 1643.87,-80 1643.87,-59 1567.87,-59"/>
<text text-anchor="start" x="1570.87" y="-66.8" font-family="Times,serif" font-weight="bold" font-size="14.00">allocator</text>
<polygon fill="none" stroke="black" points="1643.87,-59 1643.87,-80 1785.87,-80 1785.87,-59 1643.87,-59"/>
<text text-anchor="start" x="1646.87" y="-65.8" font-family="Times,serif" font-size="14.00">num_of_allocations</text>
<polygon fill="none" stroke="black" points="1785.87,-59 1785.87,-80 1925.87,-80 1925.87,-59 1785.87,-59"/>
<text text-anchor="start" x="1788.87" y="-65.8" font-family="Times,serif" font-size="14.00">sum_of_allocations</text>
</g>
<!-- client_allocator_distribution_weekly&#45;&gt;cad_label -->
<g id="edge22" class="edge">
<title>client_allocator_distribution_weekly&#45;&gt;cad_label</title>
<path fill="none" stroke="black" stroke-dasharray="1,5" d="M983.12,-70C1114.01,-70 1314.23,-70 1469.5,-70"/>
</g>
<!-- pfc_label -->
<g id="node15" class="node">
<title>pfc_label</title>
<polygon fill="none" stroke="black" points="1620.87,-243 1620.87,-264 1693.87,-264 1693.87,-243 1620.87,-243"/>
<text text-anchor="start" x="1623.87" y="-250.8" font-family="Times,serif" font-weight="bold" font-size="14.00">provider</text>
<polygon fill="none" stroke="black" points="1693.87,-243 1693.87,-264 1775.87,-264 1775.87,-243 1693.87,-243"/>
<text text-anchor="start" x="1696.87" y="-249.8" font-family="Times,serif" font-size="14.00">first_client</text>
</g>
<!-- provider_first_client&#45;&gt;pfc_label -->
<g id="edge15" class="edge">
<title>provider_first_client&#45;&gt;pfc_label</title>
<path fill="none" stroke="black" stroke-dasharray="1,5" d="M1179.46,-254C1294.77,-254 1506.17,-254 1620.14,-254"/>
</g>
<!-- crd_label -->
<g id="node20" class="node">
<title>crd_label</title>
<polygon fill="none" stroke="black" points="1485.87,-389 1485.87,-410 1537.87,-410 1537.87,-389 1485.87,-389"/>
<text text-anchor="start" x="1488.87" y="-396.8" font-family="Times,serif" font-weight="bold" font-size="14.00">client</text>
<polygon fill="none" stroke="black" points="1537.87,-389 1537.87,-410 1670.87,-410 1670.87,-389 1537.87,-389"/>
<text text-anchor="start" x="1540.87" y="-396.8" font-family="Times,serif" font-weight="bold" font-size="14.00">num_of_replicas</text>
<polygon fill="none" stroke="black" points="1670.87,-389 1670.87,-410 1781.87,-410 1781.87,-389 1670.87,-389"/>
<text text-anchor="start" x="1673.87" y="-395.8" font-family="Times,serif" font-size="14.00">total_deal_size</text>
<polygon fill="none" stroke="black" points="1781.87,-389 1781.87,-410 1909.87,-410 1909.87,-389 1781.87,-389"/>
<text text-anchor="start" x="1784.87" y="-395.8" font-family="Times,serif" font-size="14.00">unique_data_size</text>
</g>
<!-- client_replica_distribution&#45;&gt;crd_label -->
<g id="edge20" class="edge">
<title>client_replica_distribution&#45;&gt;crd_label</title>
<path fill="none" stroke="black" stroke-dasharray="1,5" d="M948.67,-400C1080.69,-400 1314.32,-400 1485.68,-400"/>
</g>
<!-- cs_label -->
<g id="node19" class="node">
<title>cs_label</title>
<polygon fill="none" stroke="black" points="1500.87,-343 1500.87,-364 1552.87,-364 1552.87,-343 1500.87,-343"/>
<text text-anchor="start" x="1503.87" y="-350.8" font-family="Times,serif" font-weight="bold" font-size="14.00">client</text>
<polygon fill="none" stroke="black" points="1552.87,-343 1552.87,-364 1653.87,-364 1653.87,-343 1552.87,-343"/>
<text text-anchor="start" x="1555.87" y="-350.8" font-family="Times,serif" font-weight="bold" font-size="14.00">other_client</text>
<polygon fill="none" stroke="black" points="1653.87,-343 1653.87,-364 1764.87,-364 1764.87,-343 1653.87,-343"/>
<text text-anchor="start" x="1656.87" y="-349.8" font-family="Times,serif" font-size="14.00">total_deal_size</text>
<polygon fill="none" stroke="black" points="1764.87,-343 1764.87,-364 1894.87,-364 1894.87,-343 1764.87,-343"/>
<text text-anchor="start" x="1767.87" y="-349.8" font-family="Times,serif" font-size="14.00">unique_cid_count</text>
</g>
<!-- cid_sharing&#45;&gt;cs_label -->
<g id="edge19" class="edge">
<title>cid_sharing&#45;&gt;cs_label</title>
<path fill="none" stroke="black" stroke-dasharray="1,5" d="M588.41,-354C742.91,-354 1225.6,-354 1500.7,-354"/>
</g>
<!-- cch_label -->
<g id="node18" class="node">
<title>cch_label</title>
<polygon fill="none" stroke="black" points="1594.87,-297 1594.87,-318 1638.87,-318 1638.87,-297 1594.87,-297"/>
<text text-anchor="start" x="1597.87" y="-304.8" font-family="Times,serif" font-weight="bold" font-size="14.00">hour</text>
<polygon fill="none" stroke="black" points="1638.87,-297 1638.87,-318 1690.87,-318 1690.87,-297 1638.87,-297"/>
<text text-anchor="start" x="1641.87" y="-304.8" font-family="Times,serif" font-weight="bold" font-size="14.00">client</text>
<polygon fill="none" stroke="black" points="1690.87,-297 1690.87,-318 1801.87,-318 1801.87,-297 1690.87,-297"/>
<text text-anchor="start" x="1693.87" y="-303.8" font-family="Times,serif" font-size="14.00">total_deal_size</text>
</g>
<!-- client_claims_hourly&#45;&gt;cch_label -->
<g id="edge18" class="edge">
<title>client_claims_hourly&#45;&gt;cch_label</title>
<path fill="none" stroke="black" stroke-dasharray="1,5" d="M1180.08,-308C1287.21,-308 1476.5,-308 1594.12,-308"/>
</g>
<!-- providers_weekly&#45;&gt;allocators_weekly -->
<g id="edge11" class="edge">
<title>providers_weekly&#45;&gt;allocators_weekly</title>
<path fill="none" stroke="black" d="M917.68,-132.25C992.52,-132.25 1099.87,-132.25 1099.87,-132.25 1099.87,-132.25 1099.87,-133.1 1099.87,-133.1"/>
<polygon fill="black" stroke="black" points="1096.37,-130.71 1099.87,-140.71 1103.37,-130.71 1096.37,-130.71"/>
</g>
<!-- p_label -->
<g id="node17" class="node">
<title>p_label</title>
<polygon fill="none" stroke="black" points="1303.87,-102 1303.87,-123 1349.87,-123 1349.87,-102 1303.87,-102"/>
<text text-anchor="start" x="1306.87" y="-109.8" font-family="Times,serif" font-weight="bold" font-size="14.00">week</text>
<polygon fill="none" stroke="black" points="1349.87,-102 1349.87,-123 1422.87,-123 1422.87,-102 1349.87,-102"/>
<text text-anchor="start" x="1352.87" y="-109.8" font-family="Times,serif" font-weight="bold" font-size="14.00">provider</text>
<polygon fill="none" stroke="black" points="1422.87,-102 1422.87,-123 1534.87,-123 1534.87,-102 1422.87,-102"/>
<text text-anchor="start" x="1425.87" y="-108.8" font-family="Times,serif" font-size="14.00">num_of_clients</text>
<polygon fill="none" stroke="black" points="1534.87,-102 1534.87,-123 1751.87,-123 1751.87,-102 1534.87,-102"/>
<text text-anchor="start" x="1537.87" y="-108.8" font-family="Times,serif" font-size="14.00">biggest_client_total_deal_size</text>
<polygon fill="none" stroke="black" points="1751.87,-102 1751.87,-123 1862.87,-123 1862.87,-102 1751.87,-102"/>
<text text-anchor="start" x="1754.87" y="-108.8" font-family="Times,serif" font-size="14.00">total_deal_size</text>
<polygon fill="none" stroke="black" points="1862.87,-102 1862.87,-123 2092.87,-123 2092.87,-102 1862.87,-102"/>
<text text-anchor="start" x="1865.87" y="-108.8" font-family="Times,serif" font-size="14.00">avg_retrievability_success_rate</text>
</g>
<!-- providers_weekly&#45;&gt;p_label -->
<g id="edge17" class="edge">
<title>providers_weekly&#45;&gt;p_label</title>
<path fill="none" stroke="black" stroke-dasharray="1,5" d="M917.6,-114.75C1003.7,-114.75 1155.9,-114.75 1303.16,-114.75"/>
</g>
<!-- a_label -->
<g id="node16" class="node">
<title>a_label</title>
<polygon fill="none" stroke="black" points="1215.87,-148 1215.87,-169 1261.87,-169 1261.87,-148 1215.87,-148"/>
<text text-anchor="start" x="1218.87" y="-155.8" font-family="Times,serif" font-weight="bold" font-size="14.00">week</text>
<polygon fill="none" stroke="black" points="1261.87,-148 1261.87,-169 1337.87,-169 1337.87,-148 1261.87,-148"/>
<text text-anchor="start" x="1264.87" y="-155.8" font-family="Times,serif" font-weight="bold" font-size="14.00">allocator</text>
<polygon fill="none" stroke="black" points="1337.87,-148 1337.87,-169 1449.87,-169 1449.87,-148 1337.87,-148"/>
<text text-anchor="start" x="1340.87" y="-154.8" font-family="Times,serif" font-size="14.00">num_of_clients</text>
<polygon fill="none" stroke="black" points="1449.87,-148 1449.87,-169 1696.87,-169 1696.87,-148 1449.87,-148"/>
<text text-anchor="start" x="1452.87" y="-154.8" font-family="Times,serif" font-size="14.00">biggest_client_sum_of_allocations</text>
<polygon fill="none" stroke="black" points="1696.87,-148 1696.87,-169 1876.87,-169 1876.87,-148 1696.87,-148"/>
<text text-anchor="start" x="1699.87" y="-154.8" font-family="Times,serif" font-size="14.00">total_sum_of_allocaitons</text>
<polygon fill="none" stroke="black" points="1876.87,-148 1876.87,-169 2179.87,-169 2179.87,-148 1876.87,-148"/>
<text text-anchor="start" x="1879.87" y="-154.8" font-family="Times,serif" font-size="14.00">avg_weighted_retrievability_success_rate</text>
</g>
<!-- allocators_weekly&#45;&gt;a_label -->
<g id="edge16" class="edge">
<title>allocators_weekly&#45;&gt;a_label</title>
<path fill="none" stroke="black" stroke-dasharray="1,5" d="M1170.97,-159C1184.46,-159 1199.47,-159 1215.63,-159"/>
</g>
</g>
</svg>
